<svg aria-hidden="true" style="position: absolute; width: 0; height: 0; overflow: hidden;" version="1.1"
    xmlns="http://www.w3.org/2000/svg" xmlns:xlink="http://www.w3.org/1999/xlink">
    <defs>
        <symbol id="icon-star" viewBox="0 0 32 32">
            <path
                d="M14.513 1.905c0.55-1.306 2.423-1.306 2.973 0l3.246 7.71c0.232 0.551 0.756 0.927 1.358 0.975l8.426 0.667c1.428 0.113 2.006 1.873 0.919 2.793l-6.419 5.432c-0.459 0.388-0.659 0.997-0.519 1.577l1.961 8.123c0.332 1.376-1.183 2.464-2.405 1.727l-7.214-4.353c-0.515-0.311-1.163-0.311-1.678 0l-7.214 4.353c-1.222 0.737-2.738-0.35-2.405-1.727l1.961-8.123c0.14-0.58-0.060-1.189-0.519-1.577l-6.42-5.432c-1.088-0.92-0.509-2.68 0.919-2.793l8.426-0.667c0.602-0.048 1.126-0.424 1.358-0.975l3.246-7.71z">
            </path>
        </symbol>
        <symbol id="icon-burger" viewBox="0 0 32 32">
            <path
                d="M5.333 8h21.333v2.667h-21.333v-2.667zM5.333 14.667h21.333v2.667h-21.333v-2.667zM5.333 21.333h21.333v2.667h-21.333v-2.667z">
            </path>
        </symbol>
        <symbol id="icon-instagram" viewBox="0 0 31 32">
            <path fill-rule="evenodd" clip-rule="evenodd"
                d="M21.333 4.324h-10.667c-3.682 0-6.667 2.985-6.667 6.667v10.667c0 3.682 2.985 6.667 6.667 6.667h10.667c3.682 0 6.667-2.985 6.667-6.667v-10.667c0-3.682-2.985-6.667-6.667-6.667zM25.667 21.657c-0.007 2.39-1.943 4.326-4.333 4.333h-10.667c-2.39-0.007-4.326-1.943-4.333-4.333v-10.667c0.007-2.39 1.943-4.326 4.333-4.333h10.667c2.39 0.007 4.326 1.943 4.333 4.333v10.667zM22.333 11.324c0.736 0 1.333-0.597 1.333-1.333s-0.597-1.333-1.333-1.333c-0.736 0-1.333 0.597-1.333 1.333s0.597 1.333 1.333 1.333zM16 10.324c-3.314 0-6 2.686-6 6s2.686 6 6 6c3.314 0 6-2.686 6-6 0.004-1.592-0.627-3.121-1.753-4.247s-2.654-1.757-4.247-1.753zM12.333 16.324c0 2.025 1.642 3.667 3.667 3.667s3.667-1.642 3.667-3.667c0-2.025-1.642-3.667-3.667-3.667s-3.667 1.642-3.667 3.667z">
            </path>
        </symbol>
        <symbol id="icon-linkedin" viewBox="0 0 31 32">
            <path fill-rule="evenodd" clip-rule="evenodd"
                d="M6 4.324c-1.105 0-2 0.895-2 2v20c0 1.105 0.895 2 2 2h20c1.105 0 2-0.895 2-2v-20c0-1.105-0.895-2-2-2h-20zM11.361 9.661c0.008 1.275-0.947 2.061-2.079 2.055-1.067-0.006-1.997-0.855-1.991-2.053 0.006-1.127 0.896-2.033 2.053-2.006 1.174 0.026 2.025 0.887 2.018 2.004zM16.373 13.339h-3.362v11.413h3.551v-0.266c0-0.507-0-1.013-0.001-1.52-0.001-1.352-0.002-2.705 0.005-4.056 0.002-0.328 0.017-0.669 0.101-0.983 0.317-1.17 1.369-1.926 2.543-1.74 0.754 0.118 1.252 0.555 1.462 1.266 0.129 0.444 0.188 0.922 0.193 1.386 0.015 1.397 0.013 2.794 0.011 4.191-0.001 0.493-0.002 0.986-0.002 1.479v0.242h3.563v-0.274c0-0.603-0-1.205-0.001-1.808-0.001-1.506-0.001-3.012 0.003-4.519 0.002-0.681-0.071-1.352-0.238-2.010-0.249-0.979-0.765-1.789-1.603-2.374-0.594-0.416-1.247-0.684-1.976-0.714-0.083-0.003-0.167-0.008-0.251-0.013-0.373-0.020-0.752-0.041-1.109 0.031-1.020 0.204-1.916 0.671-2.593 1.494-0.079 0.094-0.156 0.19-0.27 0.333l-0.026 0.032v-1.592zM7.576 24.756h3.534v-11.409h-3.534v11.409z">
            </path>
        </symbol>
        <symbol id="icon-youtube" viewBox="0 0 47 32">
            <path
                d="M28.791 9.604c-0.152-0.563-0.449-1.077-0.861-1.49s-0.925-0.711-1.489-0.864c-2.088-0.573-10.441-0.583-10.441-0.583s-8.352-0.009-10.441 0.539c-0.563 0.16-1.075 0.462-1.487 0.878s-0.711 0.929-0.867 1.493c-0.551 2.088-0.556 6.419-0.556 6.419s-0.005 4.352 0.541 6.419c0.307 1.143 1.207 2.045 2.351 2.353 2.109 0.573 10.44 0.583 10.44 0.583s8.353 0.009 10.441-0.537c0.563-0.153 1.077-0.45 1.49-0.862s0.712-0.925 0.866-1.488c0.552-2.087 0.556-6.416 0.556-6.416s0.027-4.353-0.543-6.441zM13.328 20.007l0.007-8 6.943 4.007-6.949 3.993z">
            </path>
        </symbol>
        <symbol id="icon-x" viewBox="0 0 32 32">
            <path
                d="M21.5893 8.45898L15.932 14.115L10.276 8.45898L8.39062 10.3443L14.0466 16.0003L8.39062 21.6563L10.276 23.5417L15.932 17.8857L21.5893 23.5417L23.4746 21.6563L17.8186 16.0003L23.4746 10.3443L21.5893 8.45898Z">
            </path>
        </symbol>
    </defs>
</svg>