<svg aria-hidden="true" style="position: absolute; width: 0; height: 0; overflow: hidden;" version="1.1"
    xmlns="http://www.w3.org/2000/svg" xmlns:xlink="http://www.w3.org/1999/xlink">
    <defs>
        <symbol id="icon-star" viewBox="0 0 32 32">
            <path
                d="M14.513 1.905c0.55-1.306 2.423-1.306 2.973 0l3.246 7.71c0.232 0.551 0.756 0.927 1.358 0.975l8.426 0.667c1.428 0.113 2.006 1.873 0.919 2.793l-6.419 5.432c-0.459 0.388-0.659 0.997-0.519 1.577l1.961 8.123c0.332 1.376-1.183 2.464-2.405 1.727l-7.214-4.353c-0.515-0.311-1.163-0.311-1.678 0l-7.214 4.353c-1.222 0.737-2.738-0.35-2.405-1.727l1.961-8.123c0.14-0.58-0.060-1.189-0.519-1.577l-6.42-5.432c-1.088-0.92-0.509-2.68 0.919-2.793l8.426-0.667c0.602-0.048 1.126-0.424 1.358-0.975l3.246-7.71z">
            </path>
        </symbol>
        <symbol id="icon-burger" viewBox="0 0 32 32">
            <path
                d="M5.333 8h21.333v2.667h-21.333v-2.667zM5.333 14.667h21.333v2.667h-21.333v-2.667zM5.333 21.333h21.333v2.667h-21.333v-2.667z">
            </path>
        </symbol>
        <symbol id="icon-instagram" viewBox="0 0 31 32">
            <path
                d="M22.187 0.869h-13.653c-4.713 0-8.533 3.821-8.533 8.533v13.653c0 4.713 3.821 8.533 8.533 8.533h13.653c4.713 0 8.533-3.821 8.533-8.533v-13.653c0-4.713-3.821-8.533-8.533-8.533zM27.733 23.055c-0.009 3.059-2.487 5.537-5.547 5.547h-13.653c-3.059-0.009-5.537-2.487-5.547-5.547v-13.653c0.009-3.059 2.487-5.537 5.547-5.547h13.653c3.059 0.009 5.537 2.487 5.547 5.547v13.653zM23.467 9.829c0.943 0 1.707-0.764 1.707-1.707s-0.764-1.707-1.707-1.707c-0.943 0-1.707 0.764-1.707 1.707s0.764 1.707 1.707 1.707zM15.36 8.549c-4.242 0-7.68 3.438-7.68 7.68s3.438 7.68 7.68 7.68c4.242 0 7.68-3.438 7.68-7.68 0.005-2.038-0.803-3.994-2.244-5.436s-3.397-2.249-5.436-2.244zM10.667 16.229c0 2.592 2.101 4.693 4.693 4.693s4.693-2.101 4.693-4.693-2.101-4.693-4.693-4.693c-2.592 0-4.693 2.101-4.693 4.693z">
            </path>
        </symbol>
        <symbol id="icon-linkedin" viewBox="0 0 31 32">
            <path
                d="M2.56 0.869c-1.414 0-2.56 1.146-2.56 2.56v25.6c0 1.414 1.146 2.56 2.56 2.56h25.6c1.414 0 2.56-1.146 2.56-2.56v-25.6c0-1.414-1.146-2.56-2.56-2.56h-25.6zM9.422 7.7c0.010 1.632-1.212 2.638-2.662 2.63-1.366-0.007-2.556-1.094-2.549-2.628 0.007-1.442 1.147-2.602 2.628-2.568 1.502 0.034 2.592 1.135 2.582 2.566zM15.837 12.409h-4.303v14.609h4.546v-0.341c0-0.648-0-1.297-0.001-1.946-0.001-1.73-0.003-3.462 0.006-5.192 0.002-0.42 0.021-0.857 0.13-1.258 0.405-1.498 1.752-2.465 3.255-2.227 0.965 0.151 1.603 0.71 1.872 1.62 0.166 0.569 0.24 1.181 0.247 1.774 0.019 1.788 0.017 3.576 0.014 5.364-0.001 0.631-0.002 1.263-0.002 1.894v0.309h4.56v-0.35c0-0.771-0-1.543-0.001-2.314-0.001-1.928-0.002-3.855 0.003-5.784 0.002-0.871-0.091-1.73-0.305-2.573-0.319-1.253-0.979-2.29-2.052-3.038-0.761-0.533-1.596-0.876-2.53-0.914-0.106-0.004-0.213-0.010-0.321-0.016-0.477-0.026-0.963-0.052-1.419 0.040-1.306 0.262-2.453 0.859-3.319 1.913-0.101 0.121-0.199 0.243-0.346 0.427l-0.033 0.041v-2.038zM4.577 27.022h4.524v-14.604h-4.524v14.604z">
            </path>
        </symbol>
        <symbol id="icon-youtube" viewBox="0 0 47 32">
            <path
                d="M45.122 4.985c-0.256-0.949-0.756-1.814-1.45-2.51s-1.559-1.198-2.507-1.456c-3.517-0.966-17.586-0.981-17.586-0.981s-14.066-0.016-17.585 0.907c-0.948 0.27-1.81 0.779-2.505 1.478s-1.198 1.565-1.461 2.515c-0.927 3.517-0.936 10.81-0.936 10.81s-0.009 7.33 0.912 10.81c0.516 1.925 2.032 3.445 3.959 3.964 3.553 0.966 17.583 0.981 17.583 0.981s14.069 0.016 17.586-0.905c0.949-0.258 1.814-0.758 2.51-1.452s1.198-1.558 1.458-2.507c0.93-3.514 0.936-10.806 0.936-10.806s0.045-7.332-0.914-10.849zM19.079 22.505l0.011-13.474 11.693 6.748-11.704 6.726z">
            </path>
        </symbol>
    </defs>
</svg>