<svg width="84" height="36" viewBox="0 0 84 36" fill="none" xmlns="http://www.w3.org/2000/svg">
<path d="M14.6629 2.50002C14.5028 2.50015 14.3339 2.50029 14.1756 2.51918C12.3355 2.67268 10.6445 3.45435 9.4403 4.87838C8.12981 6.4281 7.81289 8.06087 7.82824 10.0338L4.3225 10.0284C4.16547 10.0283 4.00314 10.0238 3.83852 10.0192C3.38113 10.0066 2.90604 9.99341 2.47757 10.0719C2.21917 10.1193 1.9937 10.245 1.81199 10.4341C1.49383 10.7653 1.4861 11.1837 1.50677 11.6123C1.53938 12.288 1.59742 12.9647 1.65539 13.6406C1.68693 14.0082 1.71847 14.376 1.74588 14.7432L2.32775 22.2617L2.61087 25.8925C2.62481 26.0717 2.63595 26.2527 2.64714 26.4345C2.68712 27.0843 2.72769 27.7436 2.89923 28.3652C3.19558 29.4222 3.78292 30.3746 4.59431 31.1143C5.30343 31.7582 6.16054 32.2176 7.08966 32.4513C7.87553 32.641 8.78853 32.6195 9.64613 32.5994C9.90139 32.5934 10.1517 32.5875 10.3924 32.5873L15.1119 32.5859L19.2338 32.5877C19.459 32.5877 19.6908 32.5932 19.9254 32.5988C20.6868 32.6169 21.4803 32.6358 22.1918 32.4699C23.1926 32.237 24.2055 31.6875 24.9362 30.963C25.6161 30.2885 26.1594 29.3879 26.3968 28.4575C26.5784 27.7456 26.624 26.9648 26.6682 26.2075C26.6825 25.9633 26.6966 25.7214 26.7151 25.4852L27.1019 20.5057L27.5843 14.3916C27.6076 14.0896 27.6378 13.7844 27.6681 13.4785C27.7337 12.8156 27.7998 12.1476 27.7983 11.4924C27.7976 11.0895 27.7123 10.7135 27.4235 10.4142C27.2248 10.208 26.8999 10.1073 26.625 10.0625C26.2129 9.99528 25.7611 10.0073 25.324 10.0189C25.1623 10.0232 25.0027 10.0274 24.8479 10.0275C23.7454 10.0254 22.6424 10.0293 21.5399 10.0392L21.4925 10.0399C21.5184 7.92706 21.048 6.11406 19.5291 4.56884C18.2599 3.25378 16.5134 2.50766 14.686 2.5L14.6629 2.50002ZM21.3448 14.5514L21.4042 14.5549C21.4058 14.5589 21.4073 14.5627 21.4087 14.5661C21.4094 14.568 21.4102 14.5697 21.4109 14.5714C21.4134 14.5777 21.4158 14.5832 21.4179 14.5879L21.4203 14.5936C21.4312 14.6183 21.4332 14.6228 21.4327 14.6626C21.4137 17.2533 20.7202 20.5888 18.8815 22.4862C17.1788 24.2432 14.5347 25.1054 12.1235 25.1532C13.2466 23.0408 15.0514 21.0374 16.913 19.5496C17.2009 19.3197 17.5023 19.1118 17.8039 18.9039C17.9981 18.77 18.1923 18.6361 18.3831 18.4961C18.5683 18.3602 18.8177 18.1758 18.844 17.9279C18.868 17.6996 18.7466 17.5225 18.6037 17.3594C18.4035 17.2434 18.257 17.195 18.0284 17.262C17.7038 17.3573 17.3768 17.5974 17.0816 17.8141C17.0034 17.8715 16.9274 17.9274 16.8543 17.9783C14.4673 19.6687 12.4838 21.866 11.046 24.413C10.9975 22.3408 11.4694 20.605 12.7402 18.9381C14.6474 16.4367 18.2978 14.9666 21.3448 14.5514ZM2.81457 11.3261L26.4974 11.3258C26.4133 12.1234 26.3589 12.9283 26.3045 13.732C26.2743 14.1797 26.244 14.6274 26.2086 15.0731L25.5709 23.0641L25.3325 26.0088C25.3219 26.1367 25.3122 26.2651 25.3025 26.3939C25.2642 26.902 25.2256 27.4146 25.1276 27.912C25.0269 28.4225 24.8315 28.8662 24.5668 29.3114C24.4647 29.4663 24.3539 29.6155 24.235 29.758C23.5485 30.5784 22.4215 31.1894 21.351 31.2704C20.7681 31.3144 20.1683 31.3034 19.5742 31.2925C19.3171 31.2877 19.0609 31.283 18.8075 31.2828L13.8941 31.2813L9.98425 31.2831C9.79567 31.2832 9.60373 31.2872 9.41036 31.2912C8.81738 31.3035 8.21023 31.316 7.64032 31.2179C6.89281 31.0874 6.19423 30.7581 5.61819 30.2644C4.92818 29.6825 4.43297 28.9034 4.19933 28.0316C4.0395 27.4538 3.99965 26.8381 3.96052 26.2336C3.95069 26.0817 3.9409 25.9306 3.92927 25.7809L3.69673 22.7847L2.81457 11.3261ZM21.8707 13.163L21.8531 13.1648C18.2581 13.5807 14.1654 15.0594 11.8417 17.9715C10.3481 19.8431 9.53212 22.2775 9.80163 24.6748C9.86081 25.2012 9.98003 25.7043 10.1519 26.2049C10.1324 26.2547 10.1087 26.3143 10.0817 26.3821C9.78668 27.1236 9.10091 28.8472 9.33942 29.3569C9.40841 29.5042 9.54893 29.6031 9.70129 29.6515C9.76408 29.6712 9.8273 29.6825 9.89264 29.6902C10.094 29.657 10.2802 29.6154 10.4014 29.4353C10.5316 29.2415 10.6649 28.776 10.7789 28.3779C10.8333 28.1882 10.8832 28.0138 10.9264 27.8912C11.0741 27.4717 11.2418 27.059 11.4093 26.6469L11.4113 26.6421C11.4309 26.5938 11.4505 26.5456 11.47 26.4974C14.4345 26.5061 17.6007 25.5782 19.7453 23.4622C22.1437 21.0953 22.7478 17.2787 22.7526 14.0488C22.7529 13.7942 22.7354 13.492 22.5491 13.2972C22.4346 13.1774 22.2622 13.1413 22.1021 13.1448C22.0249 13.1465 21.9476 13.1548 21.8707 13.163ZM14.3747 3.79533C14.4895 3.78822 14.6048 3.7818 14.7196 3.7826C16.1277 3.79249 17.5376 4.42227 18.5272 5.41464C19.8744 6.7659 20.15 8.19982 20.1529 10.0339L14.9938 10.0311L9.18838 10.0383C9.14397 8.46179 9.39788 7.02185 10.4322 5.77702C11.4257 4.58116 12.8438 3.93209 14.3747 3.79533Z" fill="#030A06"/>
<path d="M21.4042 14.5549L21.3448 14.5514C18.2978 14.9666 14.6474 16.4367 12.7402 18.9381C11.4693 20.6049 10.9975 22.3408 11.046 24.413C12.4838 21.866 14.4673 19.6686 16.8543 17.9783C16.9274 17.9274 17.0034 17.8715 17.0816 17.8141C17.3768 17.5974 17.7038 17.3573 18.0283 17.262C18.257 17.195 18.4035 17.2434 18.6037 17.3594C18.7466 17.5225 18.868 17.6996 18.844 17.9279C18.8177 18.1758 18.5683 18.3602 18.3831 18.4961C18.1923 18.636 17.9981 18.77 17.8039 18.9039C17.5023 19.1118 17.2009 19.3196 16.913 19.5496C15.0514 21.0374 13.2466 23.0408 12.1234 25.1532C14.5347 25.1054 17.1788 24.2432 18.8815 22.4862C20.7202 20.5888 21.4137 17.2533 21.4327 14.6626C21.4332 14.6228 21.4312 14.6183 21.4203 14.5936C21.4177 14.5877 21.4145 14.5804 21.4108 14.5714C21.4088 14.5665 21.4066 14.561 21.4042 14.5549ZM21.8531 13.1648L21.8707 13.163C21.9476 13.1548 22.0248 13.1465 22.1021 13.1448C22.2621 13.1413 22.4346 13.1774 22.5491 13.2972C22.7354 13.492 22.7529 13.7941 22.7525 14.0488C22.7478 17.2787 22.1436 21.0953 19.7453 23.4622C17.6007 25.5782 14.4345 26.5061 11.47 26.4974C11.4504 26.5456 11.4308 26.5938 11.4112 26.6421L11.4093 26.6469C11.2418 27.059 11.0741 27.4717 10.9264 27.8912C10.8832 28.0138 10.8332 28.1882 10.7789 28.3779C10.6649 28.776 10.5316 29.2415 10.4014 29.4353C10.2802 29.6154 10.094 29.657 9.89262 29.6902C9.82729 29.6825 9.76406 29.6712 9.70128 29.6515C9.54891 29.603 9.40839 29.5042 9.33941 29.3569C9.1009 28.8472 9.78667 27.1236 10.0817 26.3821C10.1087 26.3143 10.1324 26.2547 10.1519 26.2049C9.98002 25.7043 9.86079 25.2012 9.80162 24.6748C9.5321 22.2775 10.3481 19.8431 11.8416 17.9715C14.1654 15.0594 18.2581 13.5807 21.8531 13.1648Z" fill="#030A06"/>
<path d="M21.8708 13.163L21.8532 13.1648C18.2582 13.5807 14.1655 15.0594 11.8418 17.9715C10.3482 19.8431 9.53225 22.2775 9.80177 24.6748C9.86094 25.2012 9.98017 25.7043 10.152 26.2049C10.1326 26.2547 10.1088 26.3143 10.0819 26.3821C9.78682 27.1236 9.10105 28.8472 9.33956 29.3569C9.40854 29.5042 9.54906 29.603 9.70143 29.6515C9.76421 29.6712 9.82744 29.6825 9.89277 29.6902C10.0942 29.657 10.2803 29.6154 10.4016 29.4353C10.5318 29.2415 10.665 28.7763 10.779 28.3781C10.8334 28.1884 10.8833 28.0139 10.9265 27.8912C11.0742 27.4716 11.2419 27.059 11.4094 26.6469C11.4101 26.6453 11.4107 26.6437 11.4114 26.6421C11.431 26.5938 11.4506 26.5456 11.4702 26.4974C14.4346 26.5061 17.6008 25.5782 19.7454 23.4622C22.1438 21.0953 22.7479 17.2787 22.7527 14.0488C22.753 13.7941 22.7355 13.492 22.5492 13.2972C22.4347 13.1774 22.2623 13.1413 22.1022 13.1448C22.025 13.1465 21.9478 13.1548 21.8708 13.163ZM21.3449 14.5514L21.4044 14.5549C21.4068 14.561 21.409 14.5665 21.411 14.5714C21.4147 14.5805 21.4179 14.5876 21.4205 14.5936C21.4313 14.6183 21.4333 14.6228 21.4328 14.6626C21.4138 17.2533 20.7204 20.5888 18.8817 22.4862C17.179 24.2432 14.5349 25.1054 12.1236 25.1532C13.2467 23.0408 15.0515 21.0374 16.9132 19.5496C17.2011 19.3196 17.5025 19.1118 17.8041 18.9039C17.9982 18.77 18.1925 18.636 18.3833 18.4961C18.5685 18.3602 18.8179 18.1758 18.8441 17.9279C18.8682 17.6996 18.7468 17.5225 18.6038 17.3594C18.4037 17.2434 18.2571 17.195 18.0285 17.262C17.704 17.3573 17.3769 17.5974 17.0818 17.8141C17.0036 17.8715 16.9275 17.9274 16.8545 17.9783C14.4674 19.6686 12.4839 21.866 11.0461 24.413C10.9976 22.3408 11.4695 20.6049 12.7404 18.9381C14.6475 16.4367 18.2979 14.9666 21.3449 14.5514Z" fill="#030A06"/>
<path d="M68.1602 21.9424C68.0703 19.3959 65.9334 17.4047 63.3874 17.4942C60.8406 17.5833 58.8486 19.7209 58.9385 22.2674C59.0284 24.8142 61.166 26.8058 63.7124 26.7159C66.2589 26.6256 68.2501 24.4884 68.1602 21.9424ZM63.5477 18.8785C64.2905 18.9086 64.8925 19.0872 65.4587 19.5887C66.1336 20.1859 66.5099 21.0487 66.5591 21.9424C66.6087 22.8369 66.3272 23.7436 65.7183 24.4099C65.1618 25.0188 64.4678 25.2914 63.6547 25.332C62.9127 25.3243 62.3005 25.2088 61.7152 24.7219C61.0314 24.1532 60.6449 23.3112 60.5721 22.4325C60.4969 21.5189 60.736 20.5744 61.3426 19.8735C61.9442 19.1787 62.6548 18.9395 63.5477 18.8785Z" fill="#030A06"/>
<path d="M55.3375 21.5604C55.034 19.0282 52.7331 17.2233 50.2017 17.5316C47.6771 17.8391 45.878 20.1326 46.1807 22.6578C46.4834 25.1831 48.7735 26.9864 51.2993 26.6886C53.8318 26.3896 55.641 24.0921 55.3375 21.5604ZM50.3494 18.9159C51.0881 18.8557 51.7573 18.9334 52.3811 19.3625C53.0815 19.8442 53.522 20.5882 53.6676 21.4192C53.8329 22.3629 53.6775 23.3721 53.1097 24.1584C52.6127 24.8471 51.9916 25.1888 51.1642 25.3206C50.4084 25.3593 49.7407 25.3133 49.1042 24.863C48.4177 24.3793 47.9551 23.6394 47.8211 22.8104C47.6668 21.8959 47.8516 20.8436 48.3975 20.0829C48.8772 19.4146 49.547 19.044 50.3494 18.9159Z" fill="#030A06"/>
<path d="M77.8325 17.4885C77.8097 17.4893 77.7874 17.4909 77.7646 17.4938C76.6032 17.6309 75.5574 18.193 74.8272 19.1148C73.9942 20.1671 73.7082 21.5014 73.8725 22.821C74.0072 23.9799 74.6003 25.0367 75.5192 25.7563C76.6077 26.602 77.9879 26.8168 79.3327 26.6329C80.1109 26.5263 81.2804 26.1537 81.7779 25.5061C81.9178 25.3243 81.9882 25.1022 81.956 24.8728C81.9333 24.7117 81.8625 24.5575 81.7299 24.4587C81.5773 24.3452 81.3739 24.3309 81.1929 24.3663C80.9413 24.4154 80.7157 24.571 80.5018 24.7185C80.4567 24.7496 80.4122 24.7804 80.368 24.8097C79.4287 25.2978 78.387 25.5273 77.3538 25.1925C76.6187 24.9505 76.0114 24.4229 75.6697 23.7281C75.4915 23.373 75.4028 22.9959 75.3239 22.609H79.7566C79.941 22.6093 80.139 22.6156 80.3425 22.6221C80.868 22.639 81.4308 22.657 81.8946 22.5741C82.0268 22.5505 82.1529 22.4797 82.2489 22.3861C82.467 22.1738 82.5056 21.8732 82.4991 21.5831C82.4743 20.4726 81.9528 19.3772 81.1449 18.6259C80.2122 17.7582 79.087 17.432 77.8325 17.4885ZM77.9692 18.876C78.642 18.7971 79.3205 18.9688 79.875 19.3589C80.5376 19.8299 80.8858 20.4987 81.0253 21.2858C80.4634 21.2926 79.9007 21.291 79.3383 21.2895C79.0572 21.2887 78.776 21.288 78.4952 21.2882L75.3776 21.2923C75.5204 20.8127 75.686 20.377 75.9927 19.9751C76.4869 19.328 77.1711 18.981 77.9692 18.876Z" fill="#030A06"/>
<path d="M53.1448 14.1921C54.8086 14.1526 56.4813 14.1892 58.1463 14.1864C59.0945 14.1847 60.3059 14.1078 61.2264 14.2026C61.3745 14.2181 61.4924 14.26 61.6051 14.3584C61.7654 14.4984 61.872 14.7095 61.8776 14.9234C61.8825 15.1167 61.7642 15.3384 61.6246 15.4681C61.5181 15.5666 61.3911 15.606 61.2508 15.6288C60.8676 15.6906 60.4446 15.6544 60.0557 15.654L57.9901 15.6504L57.9892 23.3165C57.9921 23.9625 58.0739 25.3716 57.9766 25.9211C57.9461 26.0936 57.8835 26.2657 57.7647 26.3979C57.637 26.5398 57.4608 26.6114 57.2713 26.6155C57.0728 26.62 56.8791 26.5764 56.736 26.432C56.5675 26.2632 56.5057 26.0147 56.485 25.784C56.4467 25.3585 56.4817 24.9082 56.4866 24.4807C56.4939 23.8482 56.4882 23.2152 56.4878 22.5827L56.4927 15.6491C55.8057 15.6524 53.4277 15.7618 52.9407 15.5409C52.7629 15.4604 52.6512 15.3359 52.5867 15.1508C52.5179 14.954 52.5492 14.7441 52.6487 14.5634C52.7651 14.3519 52.9205 14.2612 53.1448 14.1921Z" fill="#030A06"/>
<path d="M42.2618 17.4946C42.8798 17.4596 43.4837 17.4991 44.0838 17.6598C44.7174 17.8294 45.6864 18.2032 46.014 18.8045C46.1041 18.97 46.1511 19.1681 46.0875 19.3512C46.0225 19.5379 45.8452 19.6807 45.6665 19.7539C45.1454 19.9674 44.4929 19.2495 44.0027 19.0648C43.2054 18.7642 42.2467 18.7809 41.4711 19.1429C40.7585 19.4756 40.2461 20.1057 39.9808 20.8375C39.6729 21.6869 39.6469 22.7946 40.0379 23.6224C40.4003 24.3895 41.0672 24.9257 41.8583 25.2051C42.7635 25.5253 43.7067 25.3548 44.5526 24.9493C44.8147 24.8073 45.0528 24.6181 45.3515 24.5563C45.5058 24.5246 45.6582 24.5413 45.7898 24.6324C45.9518 24.7447 46.0827 24.9668 46.1042 25.1628C46.1244 25.3467 46.0529 25.5159 45.9388 25.6571C45.4439 26.2705 44.3423 26.5788 43.5926 26.6708C42.2914 26.8302 40.9361 26.5695 39.8948 25.7392C38.916 24.9741 38.2931 23.8416 38.1713 22.6054C38.0424 21.3737 38.4035 20.1407 39.1767 19.1734C39.9605 18.2097 41.03 17.6264 42.2618 17.4946Z" fill="#030A06"/>
<path d="M70.0524 15.1667C70.0784 15.1655 70.104 15.1642 70.1297 15.1634C70.3603 15.1561 70.5922 15.2179 70.7553 15.388C71.1442 15.7943 70.9896 17.1636 70.9851 17.7241C71.5147 17.7273 72.8034 17.5626 73.2004 17.9157C73.344 18.0438 73.4026 18.2212 73.403 18.4103C73.4038 18.5938 73.3562 18.7695 73.22 18.8989C72.849 19.2503 71.5094 19.112 70.9843 19.1088C70.9892 20.2347 70.837 23.7054 71.184 24.5596C71.745 25.941 72.9608 24.726 73.6544 25.0526C73.8029 25.1226 73.9245 25.2703 73.9794 25.424C74.0575 25.6429 73.988 25.8385 73.8981 26.0395C73.8826 26.0566 73.8671 26.0732 73.8517 26.0899C73.4327 26.5264 72.6456 26.6313 72.0676 26.6395C71.3968 26.6492 70.7626 26.5353 70.2671 26.0391C69.9092 25.6803 69.6867 25.1881 69.5777 24.6983C69.4092 23.9417 69.4788 23.1042 69.4792 22.3325L69.4812 19.11C69.0745 19.1096 68.6673 19.1067 68.2605 19.1002C68.1934 19.0583 68.1279 19.0152 68.0689 18.9619C67.9082 18.8171 67.835 18.6011 67.8293 18.3884C67.8244 18.2102 67.8789 18.0345 68.012 17.9112C68.3406 17.6069 69.0635 17.716 69.4812 17.7233C69.48 17.1371 69.3515 16.086 69.5728 15.5702C69.6712 15.3412 69.8319 15.2582 70.0524 15.1667Z" fill="#030A06"/>
<path fill-rule="evenodd" clip-rule="evenodd" d="M37.7793 14.9471C37.0784 14.8783 33.6478 14.9027 32.4576 14.9202C32.2388 14.9234 32.0358 14.9383 31.8576 14.9514C31.7059 14.9626 31.5722 14.9725 31.4618 14.9726C31.4618 14.9726 30.9881 15.0838 30.8345 15.2971C30.7341 15.4369 30.6998 15.6141 30.6758 15.781C30.5487 16.6672 30.4743 17.5714 30.4001 18.4726C30.3611 18.9469 30.3221 19.4204 30.2756 19.89L29.8242 24.4455C29.8122 24.5673 29.7914 24.7335 29.7677 24.9223C29.6913 25.5325 29.5854 26.3777 29.6539 26.7141C29.6918 26.9005 29.7906 27.0545 29.9555 27.1517C30.1181 27.2476 30.3025 27.3022 30.4876 27.3336L30.4893 27.3336C30.8721 27.3328 31.4492 27.3388 32.0941 27.3454C33.4312 27.3593 36.8311 27.3761 37.6217 27.3421C37.7793 27.3352 37.9464 27.3218 38.095 27.2656C38.2945 27.19 38.4586 27.0456 38.5375 26.8446C38.617 26.6425 38.5993 26.4159 38.5092 26.2206C38.4186 26.0237 38.2962 25.9188 38.0908 25.8529H31.2572C31.3712 24.8468 31.4732 23.8395 31.563 22.831L31.6437 22.0112L31.6515 21.9299C31.7049 21.9306 31.7752 21.9317 31.8588 21.9329C32.5548 21.9434 35.9424 21.9678 36.3741 21.9035C36.5325 21.8799 36.6804 21.84 36.7963 21.7233C36.9463 21.5719 37.0087 21.3629 36.9963 21.153C36.9858 20.9748 36.9069 20.7808 36.7715 20.6608C36.6811 20.581 36.5691 20.5294 36.4495 20.5127C36.0461 20.454 33.0343 20.4699 32.274 20.4797C32.0701 20.4823 31.9006 20.4845 31.7911 20.4846L32.1375 16.3977H35.8253C36.0133 16.3978 36.2092 16.4041 36.408 16.4105C36.8893 16.4259 37.3881 16.4419 37.8357 16.3725C37.9949 16.3481 38.1314 16.2936 38.2469 16.1777C38.3883 16.0357 38.4657 15.8209 38.4548 15.6216C38.4437 15.4182 38.3343 15.2246 38.1752 15.0997C38.054 15.0045 37.9312 14.9618 37.7793 14.9471Z" fill="#030A06"/>
</svg>
