<svg width="34" height="39" viewBox="0 0 34 39" fill="#cccccc" stroke="#ffffff" xmlns="http://www.w3.org/2000/svg">
<path d="M17.0842 0.355434C16.8811 0.355601 16.667 0.355776 16.4663 0.379725C14.1331 0.574353 11.9891 1.56548 10.4622 3.37108C8.80055 5.33604 8.39872 7.40631 8.41818 9.90786L3.97308 9.90107C3.77397 9.90089 3.56815 9.8952 3.35942 9.88942C2.77947 9.87336 2.17707 9.85668 1.6338 9.95622C1.30617 10.0163 1.02028 10.1756 0.789869 10.4155C0.386465 10.8354 0.376663 11.3659 0.402876 11.9093C0.444221 12.7661 0.517811 13.6241 0.591316 14.4811C0.631303 14.9473 0.6713 15.4136 0.706052 15.8792L1.44384 25.4122L1.80281 30.0159C1.82049 30.2432 1.83462 30.4727 1.8488 30.7032C1.8995 31.527 1.95094 32.363 2.16845 33.1512C2.5442 34.4914 3.28892 35.699 4.31772 36.637C5.21685 37.4534 6.30363 38.0359 7.4817 38.3322C8.47814 38.5727 9.63578 38.5455 10.7232 38.5199C11.0468 38.5123 11.3643 38.5049 11.6694 38.5047L17.6535 38.5028L22.8798 38.5051C23.1653 38.5051 23.4593 38.5121 23.7568 38.5192C24.7221 38.5421 25.7283 38.566 26.6304 38.3558C27.8995 38.0604 29.1837 37.3637 30.1102 36.4451C30.9724 35.5899 31.6612 34.448 31.9621 33.2682C32.1925 32.3656 32.2503 31.3756 32.3063 30.4153C32.3244 30.1057 32.3423 29.799 32.3657 29.4995L32.8562 23.1857L33.4678 15.4333C33.4975 15.0504 33.5358 14.6634 33.5741 14.2756C33.6573 13.435 33.7411 12.5881 33.7392 11.7574C33.7383 11.2464 33.6301 10.7697 33.264 10.3903C33.012 10.1288 32.6001 10.0011 32.2515 9.94424C31.7291 9.85906 31.1561 9.87425 30.6019 9.88895C30.397 9.89439 30.1946 9.89975 29.9983 9.89995C28.6003 9.89723 27.2018 9.90218 25.8038 9.9147L25.7437 9.91558C25.7766 7.23665 25.1802 4.93786 23.2543 2.97859C21.645 1.31117 19.4306 0.365116 17.1135 0.355408L17.0842 0.355434ZM25.5565 15.636L25.6319 15.6404C25.6338 15.6455 25.6357 15.6503 25.6375 15.6547C25.6385 15.657 25.6394 15.6592 25.6403 15.6614C25.6435 15.6694 25.6465 15.6763 25.6491 15.6823L25.6523 15.6895C25.6661 15.7208 25.6686 15.7265 25.6679 15.7769C25.6439 19.0619 24.7646 23.2911 22.4332 25.6969C20.2743 27.9247 16.9217 29.0179 13.8643 29.0785C15.2884 26.4001 17.5768 23.86 19.9373 21.9734C20.3023 21.6819 20.6844 21.4184 21.0668 21.1547C21.313 20.985 21.5593 20.8151 21.8012 20.6377C22.0361 20.4653 22.3523 20.2315 22.3856 19.9172C22.4161 19.6278 22.2622 19.4032 22.0809 19.1964C21.8271 19.0493 21.6413 18.9879 21.3514 19.0729C20.9399 19.1937 20.5252 19.4982 20.151 19.773C20.0519 19.8458 19.9555 19.9165 19.8628 19.9812C16.8362 22.1244 14.3212 24.9106 12.4981 28.14C12.4366 25.5126 13.0349 23.3116 14.6463 21.1981C17.0645 18.0264 21.6931 16.1624 25.5565 15.636ZM2.06109 11.5465L32.0897 11.5461C31.9832 12.5574 31.9141 13.578 31.8452 14.597C31.8068 15.1647 31.7684 15.7324 31.7236 16.2975L30.915 26.4297L30.6127 30.1634C30.5992 30.3255 30.5869 30.4884 30.5746 30.6517C30.5261 31.2959 30.4772 31.9459 30.3529 32.5766C30.2253 33.2238 29.9775 33.7864 29.6418 34.3509C29.5124 34.5474 29.3719 34.7365 29.2212 34.9172C28.3506 35.9574 26.9217 36.7322 25.5644 36.8348C24.8253 36.8906 24.0648 36.8767 23.3115 36.8628C22.9855 36.8568 22.6606 36.8508 22.3394 36.8506L16.1094 36.8487L11.1519 36.851C10.9128 36.8511 10.6694 36.8562 10.4242 36.8612C9.67236 36.8768 8.90253 36.8927 8.17991 36.7683C7.2321 36.6028 6.34634 36.1853 5.61595 35.5593C4.74105 34.8215 4.11315 33.8336 3.81691 32.7282C3.61425 31.9956 3.56372 31.2149 3.5141 30.4484C3.50164 30.2559 3.48923 30.0642 3.47448 29.8744L3.17963 26.0755L2.06109 11.5465ZM26.2233 13.8755L26.201 13.8779C21.6427 14.4052 16.4534 16.2801 13.507 19.9725C11.6132 22.3456 10.5786 25.4323 10.9203 28.4719C10.9954 29.1394 11.1465 29.7774 11.3644 30.4121C11.3398 30.4751 11.3097 30.5507 11.2755 30.6367C10.9014 31.5769 10.0319 33.7623 10.3343 34.4087C10.4218 34.5954 10.5999 34.7207 10.7931 34.7822C10.8727 34.8072 10.9529 34.8215 11.0357 34.8312C11.2911 34.7892 11.5272 34.7365 11.6809 34.5081C11.8459 34.2623 12.015 33.6721 12.1595 33.1673C12.2284 32.9268 12.2917 32.7057 12.3465 32.5502C12.5338 32.0182 12.7464 31.495 12.9588 30.9725L12.9613 30.9664C12.9861 30.9052 13.011 30.844 13.0358 30.7829C16.7946 30.794 20.8092 29.6174 23.5284 26.9344C26.5694 23.9333 27.3355 19.094 27.3415 14.9987C27.3419 14.6758 27.3197 14.2927 27.0835 14.0457C26.9383 13.8938 26.7197 13.848 26.5167 13.8525C26.4188 13.8547 26.3209 13.8651 26.2233 13.8755ZM16.7188 1.99782C16.8644 1.98881 17.0105 1.98067 17.1561 1.98169C18.9415 1.99421 20.7292 2.79274 21.9839 4.05103C23.6921 5.76436 24.0416 7.58249 24.0453 9.908L17.5037 9.90444L10.1428 9.91359C10.0865 7.91466 10.4084 6.0889 11.7198 4.51051C12.9796 2.99421 14.7776 2.17123 16.7188 1.99782Z" fill="#030A06"/>
</svg>
